<svg width="243" height="148" viewBox="0 0 243 148" fill="none" xmlns="http://www.w3.org/2000/svg">
<g filter="url(#filter0_d_238_2)">
<g filter="url(#filter1_d_238_2)">
<path d="M104.328 58.61C104.328 61.0833 103.931 63.3 103.138 65.26C102.344 67.22 101.084 68.8767 99.3576 70.23C97.6776 71.5833 95.4609 72.6333 92.7076 73.38C90.0009 74.1267 86.6876 74.5 82.7676 74.5H76.4676V88.01C76.4676 89.7367 76.5609 91.16 76.7476 92.28C76.9809 93.3533 77.4242 94.1933 78.0776 94.8C78.7776 95.4067 79.7576 95.8267 81.0176 96.06C82.3242 96.2467 84.0276 96.34 86.1276 96.34V99H61.4176V96.34C63.0509 96.2933 64.3576 96.1533 65.3376 95.92C66.3642 95.6867 67.1576 95.29 67.7176 94.73C68.2776 94.17 68.6509 93.3767 68.8376 92.35C69.0242 91.3233 69.1176 89.9933 69.1176 88.36V55.74C69.1176 54.1067 69.0242 52.8 68.8376 51.82C68.6976 50.7933 68.3709 50 67.8576 49.44C67.3909 48.8333 66.6909 48.4367 65.7576 48.25C64.8242 48.0167 63.6109 47.8533 62.1176 47.76V45.1H84.0976C90.5376 45.1 95.5076 46.29 99.0076 48.67C102.554 51.05 104.328 54.3633 104.328 58.61ZM76.4676 71H81.4376C86.1042 71 89.5576 70.1133 91.7976 68.34C94.0842 66.52 95.2276 63.5567 95.2276 59.45C95.2276 55.4833 94.3176 52.66 92.4976 50.98C90.7242 49.2533 87.9242 48.39 84.0976 48.39H77.6576C76.8642 48.39 76.4676 48.7867 76.4676 49.58V71ZM116.474 55.74C116.474 54.1067 116.381 52.8 116.194 51.82C116.054 50.7933 115.728 50 115.214 49.44C114.748 48.8333 114.048 48.4367 113.114 48.25C112.181 48.0167 110.968 47.8533 109.474 47.76V45.1H130.754V47.76C129.261 47.8067 128.048 47.9467 127.114 48.18C126.228 48.4133 125.528 48.8333 125.014 49.44C124.548 50.0467 124.221 50.8867 124.034 51.96C123.894 53.0333 123.824 54.4567 123.824 56.23V99.14C123.824 105.02 122.588 109.5 120.114 112.58C117.641 115.66 114.024 117.2 109.264 117.2C106.044 117.2 103.478 116.57 101.564 115.31C99.6042 114.097 98.6242 112.463 98.6242 110.41C98.6242 109.197 98.9509 108.263 99.6042 107.61C100.211 107.003 101.074 106.7 102.194 106.7C103.081 106.7 103.804 106.91 104.364 107.33C104.878 107.797 105.484 108.683 106.184 109.99C106.978 111.483 107.654 112.487 108.214 113C108.821 113.56 109.591 113.84 110.524 113.84C112.438 113.84 113.908 112.813 114.934 110.76C115.961 108.707 116.474 105.79 116.474 102.01V55.74ZM182.243 99H137.023V96.34C138.656 96.2933 139.963 96.1533 140.943 95.92C141.97 95.6867 142.763 95.29 143.323 94.73C143.883 94.17 144.256 93.3767 144.443 92.35C144.63 91.3233 144.723 89.9933 144.723 88.36V55.74C144.723 54.1067 144.63 52.8 144.443 51.82C144.303 50.7933 143.976 50 143.463 49.44C142.996 48.8333 142.296 48.4367 141.363 48.25C140.43 48.0167 139.216 47.8533 137.723 47.76V45.1H159.003V47.76C157.51 47.8067 156.296 47.9467 155.363 48.18C154.476 48.4133 153.776 48.8333 153.263 49.44C152.796 50.0467 152.47 50.8867 152.283 51.96C152.143 53.0333 152.073 54.4567 152.073 56.23V86.4C152.073 88.36 152.26 89.97 152.633 91.23C153.053 92.4433 153.73 93.4 154.663 94.1C155.643 94.7533 156.926 95.22 158.513 95.5C160.1 95.7333 162.106 95.85 164.533 95.85C167.193 95.85 169.433 95.71 171.253 95.43C173.073 95.1033 174.59 94.5667 175.803 93.82C177.063 93.0267 178.043 91.9533 178.743 90.6C179.49 89.2 180.12 87.4033 180.633 85.21H183.293L182.243 99Z" fill="#F9F8F8"/>
</g>
<g filter="url(#filter2_d_238_2)">
<path d="M137.013 126.3C136.83 126.3 136.555 126.233 136.188 126.1C135.822 125.983 135.43 125.842 135.013 125.675C134.597 125.492 134.205 125.325 133.838 125.175C133.488 125.008 133.238 124.892 133.088 124.825L131.363 126.2L131.013 126C131.03 125.967 131.155 125.817 131.388 125.55C131.622 125.267 131.888 124.958 132.188 124.625C132.505 124.275 132.788 123.967 133.038 123.7C133.288 123.433 133.43 123.292 133.463 123.275H133.688C133.755 123.275 133.813 123.275 133.863 123.275C133.93 123.275 133.988 123.292 134.038 123.325C134.455 122.958 134.988 122.475 135.638 121.875C136.288 121.275 136.972 120.608 137.688 119.875C138.405 119.142 139.08 118.392 139.713 117.625C140.363 116.842 140.888 116.092 141.288 115.375C141.688 114.642 141.888 113.992 141.888 113.425C141.888 113.025 141.78 112.742 141.563 112.575C141.347 112.408 141.047 112.325 140.663 112.325C140.03 112.325 139.438 112.533 138.888 112.95C138.338 113.367 137.855 113.883 137.438 114.5C137.038 115.1 136.73 115.675 136.513 116.225L136.413 116.325H136.113L136.088 116.15C136.355 115.417 136.73 114.7 137.213 114C137.713 113.283 138.313 112.692 139.013 112.225C139.713 111.758 140.488 111.525 141.338 111.525C141.972 111.525 142.505 111.708 142.938 112.075C143.388 112.425 143.613 112.942 143.613 113.625C143.613 114.075 143.438 114.592 143.088 115.175C142.738 115.758 142.272 116.375 141.688 117.025C141.105 117.675 140.472 118.325 139.788 118.975C139.105 119.625 138.422 120.242 137.738 120.825C137.055 121.408 136.43 121.933 135.863 122.4C135.297 122.85 134.855 123.208 134.538 123.475C134.705 123.542 134.947 123.658 135.263 123.825C135.58 123.975 135.922 124.133 136.288 124.3C136.655 124.467 136.988 124.608 137.288 124.725C137.605 124.842 137.838 124.9 137.988 124.9C138.338 124.9 138.663 124.817 138.963 124.65C139.28 124.467 139.563 124.258 139.813 124.025C140.063 123.792 140.272 123.583 140.438 123.4C140.622 123.2 140.747 123.092 140.813 123.075L141.013 123.225V123.325C140.813 123.575 140.555 123.867 140.238 124.2C139.938 124.533 139.597 124.858 139.213 125.175C138.847 125.492 138.472 125.758 138.088 125.975C137.705 126.192 137.347 126.3 137.013 126.3ZM152.313 126.3C151.93 126.3 151.53 126.258 151.113 126.175C150.697 126.092 150.33 125.933 150.013 125.7V125.55L150.163 125.4L150.313 125.35C150.547 125.467 150.822 125.558 151.138 125.625C151.472 125.692 151.772 125.725 152.038 125.725C152.688 125.725 153.363 125.55 154.063 125.2C154.763 124.85 155.413 124.392 156.013 123.825C156.613 123.242 157.097 122.608 157.463 121.925C157.847 121.242 158.038 120.567 158.038 119.9C158.038 119.367 157.863 118.975 157.513 118.725C157.18 118.475 156.78 118.35 156.313 118.35C156.03 118.35 155.73 118.392 155.413 118.475C155.113 118.542 154.822 118.617 154.538 118.7L154.363 118.625L154.338 118.4L154.438 118.25C154.888 118.067 155.438 117.817 156.088 117.5C156.738 117.183 157.38 116.808 158.013 116.375C158.647 115.942 159.172 115.458 159.588 114.925C160.005 114.392 160.213 113.817 160.213 113.2C160.213 112.6 159.897 112.3 159.263 112.3C158.83 112.3 158.388 112.425 157.938 112.675C157.505 112.925 157.097 113.225 156.713 113.575C156.347 113.908 156.03 114.233 155.763 114.55H155.638L155.463 114.375V114.25C155.847 113.783 156.272 113.342 156.738 112.925C157.205 112.508 157.713 112.167 158.263 111.9C158.83 111.633 159.43 111.5 160.063 111.5C160.563 111.5 161.005 111.617 161.388 111.85C161.772 112.083 161.963 112.475 161.963 113.025C161.963 113.658 161.763 114.233 161.363 114.75C160.98 115.25 160.488 115.7 159.888 116.1C159.305 116.483 158.697 116.817 158.063 117.1C157.43 117.383 156.863 117.617 156.363 117.8C156.863 117.8 157.372 117.867 157.888 118C158.422 118.133 158.863 118.367 159.213 118.7C159.58 119.033 159.763 119.5 159.763 120.1C159.763 120.717 159.597 121.325 159.263 121.925C158.947 122.525 158.513 123.092 157.963 123.625C157.43 124.142 156.83 124.6 156.163 125C155.513 125.4 154.855 125.717 154.188 125.95C153.522 126.183 152.897 126.3 152.313 126.3ZM168.531 126.125L168.356 126.075L168.331 125.975C168.331 125.842 168.489 125.542 168.806 125.075C169.123 124.592 169.548 124.008 170.081 123.325C170.614 122.625 171.198 121.875 171.831 121.075C172.481 120.258 173.131 119.45 173.781 118.65C174.448 117.833 175.073 117.075 175.656 116.375C176.239 115.658 176.739 115.058 177.156 114.575C177.573 114.075 177.848 113.742 177.981 113.575C177.314 113.542 176.648 113.517 175.981 113.5C175.331 113.483 174.664 113.475 173.981 113.475C173.431 113.475 173.014 113.567 172.731 113.75C172.464 113.917 172.264 114.125 172.131 114.375C171.998 114.608 171.881 114.817 171.781 115C171.698 115.183 171.564 115.275 171.381 115.275L171.306 115.25L171.281 115.075C171.481 114.408 171.673 113.867 171.856 113.45C172.039 113.017 172.264 112.683 172.531 112.45C172.798 112.217 173.156 112.058 173.606 111.975C174.073 111.875 174.681 111.825 175.431 111.825C176.014 111.825 176.606 111.833 177.206 111.85C177.823 111.867 178.439 111.917 179.056 112C179.106 111.967 179.173 111.917 179.256 111.85C179.356 111.767 179.439 111.725 179.506 111.725L179.656 111.9L179.606 112.05C179.373 112.4 179.206 112.658 179.106 112.825C179.006 112.975 178.906 113.117 178.806 113.25C178.723 113.367 178.581 113.558 178.381 113.825C178.198 114.075 177.906 114.467 177.506 115C177.106 115.533 176.539 116.292 175.806 117.275C175.073 118.258 174.348 119.342 173.631 120.525C172.914 121.708 172.214 122.817 171.531 123.85C171.498 123.9 171.414 124.033 171.281 124.25C171.164 124.45 171.031 124.675 170.881 124.925C170.748 125.175 170.623 125.4 170.506 125.6C170.389 125.783 170.323 125.883 170.306 125.9C170.123 126.017 169.839 126.075 169.456 126.075C169.089 126.092 168.781 126.108 168.531 126.125Z" fill="#F9F8F8"/>
</g>
</g>
<defs>
<filter id="filter0_d_238_2" x="57.4175" y="45.1" width="129.875" height="89.2" filterUnits="userSpaceOnUse" color-interpolation-filters="sRGB">
<feFlood flood-opacity="0" result="BackgroundImageFix"/>
<feColorMatrix in="SourceAlpha" type="matrix" values="0 0 0 0 0 0 0 0 0 0 0 0 0 0 0 0 0 0 127 0" result="hardAlpha"/>
<feOffset dy="4"/>
<feGaussianBlur stdDeviation="2"/>
<feComposite in2="hardAlpha" operator="out"/>
<feColorMatrix type="matrix" values="0 0 0 0 0 0 0 0 0 0 0 0 0 0 0 0 0 0 0.25 0"/>
<feBlend mode="normal" in2="BackgroundImageFix" result="effect1_dropShadow_238_2"/>
<feBlend mode="normal" in="SourceGraphic" in2="effect1_dropShadow_238_2" result="shape"/>
</filter>
<filter id="filter1_d_238_2" x="53.4175" y="45.1" width="129.875" height="80.1" filterUnits="userSpaceOnUse" color-interpolation-filters="sRGB">
<feFlood flood-opacity="0" result="BackgroundImageFix"/>
<feColorMatrix in="SourceAlpha" type="matrix" values="0 0 0 0 0 0 0 0 0 0 0 0 0 0 0 0 0 0 127 0" result="hardAlpha"/>
<feOffset dx="-4" dy="4"/>
<feGaussianBlur stdDeviation="2"/>
<feComposite in2="hardAlpha" operator="out"/>
<feColorMatrix type="matrix" values="0 0 0 0 0 0 0 0 0 0 0 0 0 0 0 0 0 0 1 0"/>
<feBlend mode="normal" in2="BackgroundImageFix" result="effect1_dropShadow_238_2"/>
<feBlend mode="normal" in="SourceGraphic" in2="effect1_dropShadow_238_2" result="shape"/>
</filter>
<filter id="filter2_d_238_2" x="131.013" y="111.5" width="56.6426" height="22.8" filterUnits="userSpaceOnUse" color-interpolation-filters="sRGB">
<feFlood flood-opacity="0" result="BackgroundImageFix"/>
<feColorMatrix in="SourceAlpha" type="matrix" values="0 0 0 0 0 0 0 0 0 0 0 0 0 0 0 0 0 0 127 0" result="hardAlpha"/>
<feOffset dx="4" dy="4"/>
<feGaussianBlur stdDeviation="2"/>
<feComposite in2="hardAlpha" operator="out"/>
<feColorMatrix type="matrix" values="0 0 0 0 0 0 0 0 0 0 0 0 0 0 0 0 0 0 1 0"/>
<feBlend mode="normal" in2="BackgroundImageFix" result="effect1_dropShadow_238_2"/>
<feBlend mode="normal" in="SourceGraphic" in2="effect1_dropShadow_238_2" result="shape"/>
</filter>
</defs>
</svg>
