<svg width="38" height="38" viewBox="0 0 38 38" fill="none" xmlns="http://www.w3.org/2000/svg">
<path fill-rule="evenodd" clip-rule="evenodd" d="M26.9657 3.90924C27.0763 4.01955 27.1641 4.15059 27.2239 4.29486C27.2838 4.43913 27.3146 4.59379 27.3146 4.74999C27.3146 4.90618 27.2838 5.06085 27.2239 5.20512C27.1641 5.34939 27.0763 5.48043 26.9657 5.59074L13.5541 19L26.9657 32.4092C27.1887 32.6322 27.314 32.9346 27.314 33.25C27.314 33.5653 27.1887 33.8678 26.9657 34.0907C26.7428 34.3137 26.4403 34.439 26.125 34.439C25.8096 34.439 25.5072 34.3137 25.2842 34.0907L11.0342 19.8407C10.9236 19.7304 10.8359 19.5994 10.776 19.4551C10.7162 19.3108 10.6854 19.1562 10.6854 19C10.6854 18.8438 10.7162 18.6891 10.776 18.5449C10.8359 18.4006 10.9236 18.2695 11.0342 18.1592L25.2842 3.90924C25.3945 3.79865 25.5256 3.71091 25.6699 3.65104C25.8141 3.59118 25.9688 3.56036 26.125 3.56036C26.2812 3.56036 26.4358 3.59118 26.5801 3.65104C26.7244 3.71091 26.8554 3.79865 26.9657 3.90924Z" fill="white"/>
</svg>
