<svg width="20" height="20" viewBox="0 0 20 20" fill="none" xmlns="http://www.w3.org/2000/svg">
<g clip-path="url(#clip0_118_54)">
<path fill-rule="evenodd" clip-rule="evenodd" d="M7.5 15.625C7.5 15.7908 7.56585 15.9497 7.68306 16.0669C7.80027 16.1842 7.95924 16.25 8.125 16.25H18.125C18.2908 16.25 18.4497 16.1842 18.5669 16.0669C18.6842 15.9497 18.75 15.7908 18.75 15.625V4.375C18.75 4.20924 18.6842 4.05027 18.5669 3.93306C18.4497 3.81585 18.2908 3.75 18.125 3.75H8.125C7.95924 3.75 7.80027 3.81585 7.68306 3.93306C7.56585 4.05027 7.5 4.20924 7.5 4.375V6.875C7.5 7.04076 7.43415 7.19973 7.31694 7.31694C7.19973 7.43415 7.04076 7.5 6.875 7.5C6.70924 7.5 6.55027 7.43415 6.43306 7.31694C6.31585 7.19973 6.25 7.04076 6.25 6.875V4.375C6.25 3.87772 6.44754 3.40081 6.79917 3.04917C7.15081 2.69754 7.62772 2.5 8.125 2.5H18.125C18.6223 2.5 19.0992 2.69754 19.4508 3.04917C19.8025 3.40081 20 3.87772 20 4.375V15.625C20 16.1223 19.8025 16.5992 19.4508 16.9508C19.0992 17.3025 18.6223 17.5 18.125 17.5H8.125C7.62772 17.5 7.15081 17.3025 6.79917 16.9508C6.44754 16.5992 6.25 16.1223 6.25 15.625V13.125C6.25 12.9592 6.31585 12.8003 6.43306 12.6831C6.55027 12.5658 6.70924 12.5 6.875 12.5C7.04076 12.5 7.19973 12.5658 7.31694 12.6831C7.43415 12.8003 7.5 12.9592 7.5 13.125V15.625Z" fill="#F9F8F8"/>
<path fill-rule="evenodd" clip-rule="evenodd" d="M0.182519 10.4425C0.124315 10.3844 0.078136 10.3155 0.0466279 10.2395C0.0151199 10.1636 -0.00109863 10.0822 -0.00109863 10C-0.00109863 9.91779 0.0151199 9.83639 0.0466279 9.76045C0.078136 9.68452 0.124315 9.61555 0.182519 9.5575L3.93252 5.8075C3.99063 5.74939 4.05962 5.70329 4.13554 5.67184C4.21146 5.64039 4.29284 5.62421 4.37502 5.62421C4.4572 5.62421 4.53857 5.64039 4.6145 5.67184C4.69042 5.70329 4.75941 5.74939 4.81752 5.8075C4.87563 5.86561 4.92172 5.93459 4.95317 6.01052C4.98462 6.08644 5.00081 6.16782 5.00081 6.25C5.00081 6.33218 4.98462 6.41355 4.95317 6.48948C4.92172 6.5654 4.87563 6.63439 4.81752 6.6925L2.13377 9.375H13.125C13.2908 9.375 13.4497 9.44084 13.567 9.55805C13.6842 9.67526 13.75 9.83424 13.75 10C13.75 10.1658 13.6842 10.3247 13.567 10.4419C13.4497 10.5591 13.2908 10.625 13.125 10.625H2.13377L4.81752 13.3075C4.87563 13.3656 4.92172 13.4346 4.95317 13.5105C4.98462 13.5864 5.00081 13.6678 5.00081 13.75C5.00081 13.8322 4.98462 13.9136 4.95317 13.9895C4.92172 14.0654 4.87563 14.1344 4.81752 14.1925C4.75941 14.2506 4.69042 14.2967 4.6145 14.3282C4.53857 14.3596 4.4572 14.3758 4.37502 14.3758C4.29284 14.3758 4.21146 14.3596 4.13554 14.3282C4.05962 14.2967 3.99063 14.2506 3.93252 14.1925L0.182519 10.4425Z" fill="#F9F8F8"/>
</g>
<defs>
<clipPath id="clip0_118_54">
<rect width="20" height="20" fill="white"/>
</clipPath>
</defs>
</svg>
