<svg width="140" height="140" viewBox="0 0 140 140" fill="none" xmlns="http://www.w3.org/2000/svg">
<g filter="url(#filter0_d_39_837)">
<path d="M5 5.33342C5 4.18413 5.45656 3.0819 6.26923 2.26923C7.0819 1.45656 8.18413 1 9.33342 1H22.3337C23.3003 1.00027 24.2391 1.32371 25.0007 1.9189C25.7624 2.51409 26.3032 3.34684 26.5371 4.28473L30.0472 18.3337H130.669C131.31 18.3341 131.943 18.4766 132.522 18.751C133.101 19.0254 133.612 19.4249 134.018 19.9206C134.425 20.4163 134.716 20.9959 134.871 21.6177C135.026 22.2395 135.042 22.888 134.916 23.5165L126.249 66.8507C126.06 67.7956 125.56 68.6504 124.83 69.2799C124.101 69.9093 123.182 70.2774 122.219 70.3261L40.7767 74.4168L43.2641 87.6684H117.669C118.818 87.6684 119.92 88.125 120.733 88.9376C121.546 89.7503 122.002 90.8525 122.002 92.0018C122.002 93.1511 121.546 94.2534 120.733 95.066C119.92 95.8787 118.818 96.3353 117.669 96.3353H39.6674C38.6571 96.3343 37.6789 95.9804 36.9019 95.3348C36.1248 94.6891 35.5978 93.7922 35.4119 92.7992L22.4204 23.5945L18.9536 9.66684H9.33342C8.18413 9.66684 7.0819 9.21029 6.26923 8.39761C5.45656 7.58494 5 6.48272 5 5.33342ZM31.8845 27.0005L39.1647 65.8193L118.414 61.8412L125.382 27.0005H31.8845ZM48.3342 96.3353C43.737 96.3353 39.3281 98.1615 36.0774 101.412C32.8267 104.663 31.0005 109.072 31.0005 113.669C31.0005 118.266 32.8267 122.675 36.0774 125.926C39.3281 129.176 43.737 131.003 48.3342 131.003C52.9314 131.003 57.3403 129.176 60.591 125.926C63.8417 122.675 65.6679 118.266 65.6679 113.669C65.6679 109.072 63.8417 104.663 60.591 101.412C57.3403 98.1615 52.9314 96.3353 48.3342 96.3353ZM109.002 96.3353C104.405 96.3353 99.996 98.1615 96.7453 101.412C93.4946 104.663 91.6684 109.072 91.6684 113.669C91.6684 118.266 93.4946 122.675 96.7453 125.926C99.996 129.176 104.405 131.003 109.002 131.003C113.599 131.003 118.008 129.176 121.259 125.926C124.51 122.675 126.336 118.266 126.336 113.669C126.336 109.072 124.51 104.663 121.259 101.412C118.008 98.1615 113.599 96.3353 109.002 96.3353ZM48.3342 105.002C50.6328 105.002 52.8372 105.915 54.4626 107.541C56.0879 109.166 57.001 111.37 57.001 113.669C57.001 115.968 56.0879 118.172 54.4626 119.797C52.8372 121.423 50.6328 122.336 48.3342 122.336C46.0356 122.336 43.8312 121.423 42.2058 119.797C40.5805 118.172 39.6674 115.968 39.6674 113.669C39.6674 111.37 40.5805 109.166 42.2058 107.541C43.8312 105.915 46.0356 105.002 48.3342 105.002ZM109.002 105.002C111.301 105.002 113.505 105.915 115.13 107.541C116.756 109.166 117.669 111.37 117.669 113.669C117.669 115.968 116.756 118.172 115.13 119.797C113.505 121.423 111.301 122.336 109.002 122.336C106.704 122.336 104.499 121.423 102.874 119.797C101.248 118.172 100.335 115.968 100.335 113.669C100.335 111.37 101.248 109.166 102.874 107.541C104.499 105.915 106.704 105.002 109.002 105.002Z" fill="#F9F8F8"/>
</g>
<defs>
<filter id="filter0_d_39_837" x="0" y="0" width="140" height="140.003" filterUnits="userSpaceOnUse" color-interpolation-filters="sRGB">
<feFlood flood-opacity="0" result="BackgroundImageFix"/>
<feColorMatrix in="SourceAlpha" type="matrix" values="0 0 0 0 0 0 0 0 0 0 0 0 0 0 0 0 0 0 127 0" result="hardAlpha"/>
<feOffset dy="4"/>
<feGaussianBlur stdDeviation="2.5"/>
<feComposite in2="hardAlpha" operator="out"/>
<feColorMatrix type="matrix" values="0 0 0 0 0 0 0 0 0 0 0 0 0 0 0 0 0 0 0.5 0"/>
<feBlend mode="normal" in2="BackgroundImageFix" result="effect1_dropShadow_39_837"/>
<feBlend mode="normal" in="SourceGraphic" in2="effect1_dropShadow_39_837" result="shape"/>
</filter>
</defs>
</svg>
