<svg width="145" height="130" viewBox="0 0 145 130" fill="none" xmlns="http://www.w3.org/2000/svg">
<path d="M72.4298 23.8163L65.9382 17.429C50.7006 2.43574 22.7604 7.60973 12.6744 26.4597C7.93927 35.3256 6.87092 48.1263 15.5173 64.4629C23.8469 80.1928 41.1759 99.0341 72.4298 119.557C103.684 99.0341 121.004 80.1928 129.342 64.4629C137.989 48.1176 136.929 35.3256 132.185 26.4597C122.099 7.60973 94.1591 2.42708 78.9214 17.4204L72.4298 23.8163ZM72.4298 130C-66.3928 42.1896 29.6866 -26.3462 70.8363 9.90639C71.3796 10.3831 71.9138 10.8771 72.4298 11.3884C72.9407 10.8775 73.4722 10.386 74.0233 9.91506C115.164 -26.3635 211.252 42.1809 72.4298 130Z" fill="#F9F8F8"/>
</svg>
