<svg width="243" height="159" viewBox="0 0 243 159" fill="none" xmlns="http://www.w3.org/2000/svg">
<g filter="url(#filter0_d_1_39)">
<g filter="url(#filter1_d_1_39)">
<path d="M92.0616 46.76C92.0616 51 91.3816 54.8 90.0216 58.16C88.6616 61.52 86.5016 64.36 83.5416 66.68C80.6616 69 76.8616 70.8 72.1416 72.08C67.5016 73.36 61.8216 74 55.1016 74H44.3016V97.16C44.3016 100.12 44.4616 102.56 44.7816 104.48C45.1816 106.32 45.9416 107.76 47.0616 108.8C48.2616 109.84 49.9416 110.56 52.1016 110.96C54.3416 111.28 57.2616 111.44 60.8616 111.44V116H18.5016V111.44C21.3016 111.36 23.5416 111.12 25.2216 110.72C26.9816 110.32 28.3416 109.64 29.3016 108.68C30.2616 107.72 30.9016 106.36 31.2216 104.6C31.5416 102.84 31.7016 100.56 31.7016 97.76V41.84C31.7016 39.04 31.5416 36.8 31.2216 35.12C30.9816 33.36 30.4216 32 29.5416 31.04C28.7416 30 27.5416 29.32 25.9416 29C24.3416 28.6 22.2616 28.32 19.7016 28.16V23.6H57.3816C68.4216 23.6 76.9416 25.64 82.9416 29.72C89.0216 33.8 92.0616 39.48 92.0616 46.76ZM44.3016 68H52.8216C60.8216 68 66.7416 66.48 70.5816 63.44C74.5016 60.32 76.4616 55.24 76.4616 48.2C76.4616 41.4 74.9016 36.56 71.7816 33.68C68.7416 30.72 63.9416 29.24 57.3816 29.24H46.3416C44.9816 29.24 44.3016 29.92 44.3016 31.28V68ZM112.884 41.84C112.884 39.04 112.724 36.8 112.404 35.12C112.164 33.36 111.604 32 110.724 31.04C109.924 30 108.724 29.32 107.124 29C105.524 28.6 103.444 28.32 100.884 28.16V23.6H137.364V28.16C134.804 28.24 132.724 28.48 131.124 28.88C129.604 29.28 128.404 30 127.524 31.04C126.724 32.08 126.164 33.52 125.844 35.36C125.604 37.2 125.484 39.64 125.484 42.68V116.24C125.484 126.32 123.364 134 119.124 139.28C114.884 144.56 108.684 147.2 100.524 147.2C95.0044 147.2 90.6044 146.12 87.3244 143.96C83.9644 141.88 82.2844 139.08 82.2844 135.56C82.2844 133.48 82.8444 131.88 83.9644 130.76C85.0044 129.72 86.4844 129.2 88.4044 129.2C89.9244 129.2 91.1644 129.56 92.1244 130.28C93.0044 131.08 94.0444 132.6 95.2444 134.84C96.6044 137.4 97.7644 139.12 98.7244 140C99.7644 140.96 101.084 141.44 102.684 141.44C105.964 141.44 108.484 139.68 110.244 136.16C112.004 132.64 112.884 127.64 112.884 121.16V41.84ZM225.631 116H148.111V111.44C150.911 111.36 153.151 111.12 154.831 110.72C156.591 110.32 157.951 109.64 158.911 108.68C159.871 107.72 160.511 106.36 160.831 104.6C161.151 102.84 161.311 100.56 161.311 97.76V41.84C161.311 39.04 161.151 36.8 160.831 35.12C160.591 33.36 160.031 32 159.151 31.04C158.351 30 157.151 29.32 155.551 29C153.951 28.6 151.871 28.32 149.311 28.16V23.6H185.791V28.16C183.231 28.24 181.151 28.48 179.551 28.88C178.031 29.28 176.831 30 175.951 31.04C175.151 32.08 174.591 33.52 174.271 35.36C174.031 37.2 173.911 39.64 173.911 42.68V94.4C173.911 97.76 174.231 100.52 174.871 102.68C175.591 104.76 176.751 106.4 178.351 107.6C180.031 108.72 182.231 109.52 184.951 110C187.671 110.4 191.111 110.6 195.271 110.6C199.831 110.6 203.671 110.36 206.791 109.88C209.911 109.32 212.511 108.4 214.591 107.12C216.751 105.76 218.431 103.92 219.631 101.6C220.911 99.2 221.991 96.12 222.871 92.36H227.431L225.631 116Z" fill="#F9F8F8"/>
</g>
<g filter="url(#filter2_d_1_39)">
<path d="M158.421 148.48C158.128 148.48 157.688 148.373 157.101 148.16C156.515 147.973 155.888 147.747 155.221 147.48C154.555 147.187 153.928 146.92 153.341 146.68C152.781 146.413 152.381 146.227 152.141 146.12L149.381 148.32L148.821 148C148.848 147.947 149.048 147.707 149.421 147.28C149.795 146.827 150.221 146.333 150.701 145.8C151.208 145.24 151.661 144.747 152.061 144.32C152.461 143.893 152.688 143.667 152.741 143.64H153.101C153.208 143.64 153.301 143.64 153.381 143.64C153.488 143.64 153.581 143.667 153.661 143.72C154.328 143.133 155.181 142.36 156.221 141.4C157.261 140.44 158.355 139.373 159.501 138.2C160.648 137.027 161.728 135.827 162.741 134.6C163.781 133.347 164.621 132.147 165.261 131C165.901 129.827 166.221 128.787 166.221 127.88C166.221 127.24 166.048 126.787 165.701 126.52C165.355 126.253 164.875 126.12 164.261 126.12C163.248 126.12 162.301 126.453 161.421 127.12C160.541 127.787 159.768 128.613 159.101 129.6C158.461 130.56 157.968 131.48 157.621 132.36L157.461 132.52H156.981L156.941 132.24C157.368 131.067 157.968 129.92 158.741 128.8C159.541 127.653 160.501 126.707 161.621 125.96C162.741 125.213 163.981 124.84 165.341 124.84C166.355 124.84 167.208 125.133 167.901 125.72C168.621 126.28 168.981 127.107 168.981 128.2C168.981 128.92 168.701 129.747 168.141 130.68C167.581 131.613 166.835 132.6 165.901 133.64C164.968 134.68 163.955 135.72 162.861 136.76C161.768 137.8 160.675 138.787 159.581 139.72C158.488 140.653 157.488 141.493 156.581 142.24C155.675 142.96 154.968 143.533 154.461 143.96C154.728 144.067 155.115 144.253 155.621 144.52C156.128 144.76 156.675 145.013 157.261 145.28C157.848 145.547 158.381 145.773 158.861 145.96C159.368 146.147 159.741 146.24 159.981 146.24C160.541 146.24 161.061 146.107 161.541 145.84C162.048 145.547 162.501 145.213 162.901 144.84C163.301 144.467 163.635 144.133 163.901 143.84C164.195 143.52 164.395 143.347 164.501 143.32L164.821 143.56V143.72C164.501 144.12 164.088 144.587 163.581 145.12C163.101 145.653 162.555 146.173 161.941 146.68C161.355 147.187 160.755 147.613 160.141 147.96C159.528 148.307 158.955 148.48 158.421 148.48ZM182.901 148.48C182.288 148.48 181.648 148.413 180.981 148.28C180.315 148.147 179.728 147.893 179.221 147.52V147.28L179.461 147.04L179.701 146.96C180.075 147.147 180.515 147.293 181.021 147.4C181.555 147.507 182.035 147.56 182.461 147.56C183.501 147.56 184.581 147.28 185.701 146.72C186.821 146.16 187.861 145.427 188.821 144.52C189.781 143.587 190.555 142.573 191.141 141.48C191.755 140.387 192.061 139.307 192.061 138.24C192.061 137.387 191.781 136.76 191.221 136.36C190.688 135.96 190.048 135.76 189.301 135.76C188.848 135.76 188.368 135.827 187.861 135.96C187.381 136.067 186.915 136.187 186.461 136.32L186.181 136.2L186.141 135.84L186.301 135.6C187.021 135.307 187.901 134.907 188.941 134.4C189.981 133.893 191.008 133.293 192.021 132.6C193.035 131.907 193.875 131.133 194.541 130.28C195.208 129.427 195.541 128.507 195.541 127.52C195.541 126.56 195.035 126.08 194.021 126.08C193.328 126.08 192.621 126.28 191.901 126.68C191.208 127.08 190.555 127.56 189.941 128.12C189.355 128.653 188.848 129.173 188.421 129.68H188.221L187.941 129.4V129.2C188.555 128.453 189.235 127.747 189.981 127.08C190.728 126.413 191.541 125.867 192.421 125.44C193.328 125.013 194.288 124.8 195.301 124.8C196.101 124.8 196.808 124.987 197.421 125.36C198.035 125.733 198.341 126.36 198.341 127.24C198.341 128.253 198.021 129.173 197.381 130C196.768 130.8 195.981 131.52 195.021 132.16C194.088 132.773 193.115 133.307 192.101 133.76C191.088 134.213 190.181 134.587 189.381 134.88C190.181 134.88 190.995 134.987 191.821 135.2C192.675 135.413 193.381 135.787 193.941 136.32C194.528 136.853 194.821 137.6 194.821 138.56C194.821 139.547 194.555 140.52 194.021 141.48C193.515 142.44 192.821 143.347 191.941 144.2C191.088 145.027 190.128 145.76 189.061 146.4C188.021 147.04 186.968 147.547 185.901 147.92C184.835 148.293 183.835 148.48 182.901 148.48ZM208.849 148.2L208.569 148.12L208.529 147.96C208.529 147.747 208.783 147.267 209.289 146.52C209.796 145.747 210.476 144.813 211.329 143.72C212.183 142.6 213.116 141.4 214.129 140.12C215.169 138.813 216.209 137.52 217.249 136.24C218.316 134.933 219.316 133.72 220.249 132.6C221.183 131.453 221.983 130.493 222.649 129.72C223.316 128.92 223.756 128.387 223.969 128.12C222.903 128.067 221.836 128.027 220.769 128C219.729 127.973 218.663 127.96 217.569 127.96C216.689 127.96 216.023 128.107 215.569 128.4C215.143 128.667 214.823 129 214.609 129.4C214.396 129.773 214.209 130.107 214.049 130.4C213.916 130.693 213.703 130.84 213.409 130.84L213.289 130.8L213.249 130.52C213.569 129.453 213.876 128.587 214.169 127.92C214.463 127.227 214.823 126.693 215.249 126.32C215.676 125.947 216.249 125.693 216.969 125.56C217.716 125.4 218.689 125.32 219.889 125.32C220.823 125.32 221.769 125.333 222.729 125.36C223.716 125.387 224.703 125.467 225.689 125.6C225.769 125.547 225.876 125.467 226.009 125.36C226.169 125.227 226.303 125.16 226.409 125.16L226.649 125.44L226.569 125.68C226.196 126.24 225.929 126.653 225.769 126.92C225.609 127.16 225.449 127.387 225.289 127.6C225.156 127.787 224.929 128.093 224.609 128.52C224.316 128.92 223.849 129.547 223.209 130.4C222.569 131.253 221.663 132.467 220.489 134.04C219.316 135.613 218.156 137.347 217.009 139.24C215.863 141.133 214.743 142.907 213.649 144.56C213.596 144.64 213.463 144.853 213.249 145.2C213.063 145.52 212.849 145.88 212.609 146.28C212.396 146.68 212.196 147.04 212.009 147.36C211.823 147.653 211.716 147.813 211.689 147.84C211.396 148.027 210.943 148.12 210.329 148.12C209.743 148.147 209.249 148.173 208.849 148.2Z" fill="#F9F8F8"/>
</g>
</g>
<defs>
<filter id="filter0_d_1_39" x="14.5016" y="23.6" width="216.929" height="132.88" filterUnits="userSpaceOnUse" color-interpolation-filters="sRGB">
<feFlood flood-opacity="0" result="BackgroundImageFix"/>
<feColorMatrix in="SourceAlpha" type="matrix" values="0 0 0 0 0 0 0 0 0 0 0 0 0 0 0 0 0 0 127 0" result="hardAlpha"/>
<feOffset dy="4"/>
<feGaussianBlur stdDeviation="2"/>
<feComposite in2="hardAlpha" operator="out"/>
<feColorMatrix type="matrix" values="0 0 0 0 0 0 0 0 0 0 0 0 0 0 0 0 0 0 0.25 0"/>
<feBlend mode="normal" in2="BackgroundImageFix" result="effect1_dropShadow_1_39"/>
<feBlend mode="normal" in="SourceGraphic" in2="effect1_dropShadow_1_39" result="shape"/>
</filter>
<filter id="filter1_d_1_39" x="10.5016" y="23.6" width="216.929" height="131.6" filterUnits="userSpaceOnUse" color-interpolation-filters="sRGB">
<feFlood flood-opacity="0" result="BackgroundImageFix"/>
<feColorMatrix in="SourceAlpha" type="matrix" values="0 0 0 0 0 0 0 0 0 0 0 0 0 0 0 0 0 0 127 0" result="hardAlpha"/>
<feOffset dx="-4" dy="4"/>
<feGaussianBlur stdDeviation="2"/>
<feComposite in2="hardAlpha" operator="out"/>
<feColorMatrix type="matrix" values="0 0 0 0 0 0 0 0 0 0 0 0 0 0 0 0 0 0 1 0"/>
<feBlend mode="normal" in2="BackgroundImageFix" result="effect1_dropShadow_1_39"/>
<feBlend mode="normal" in="SourceGraphic" in2="effect1_dropShadow_1_39" result="shape"/>
</filter>
<filter id="filter2_d_1_39" x="148.821" y="124.8" width="85.8281" height="31.68" filterUnits="userSpaceOnUse" color-interpolation-filters="sRGB">
<feFlood flood-opacity="0" result="BackgroundImageFix"/>
<feColorMatrix in="SourceAlpha" type="matrix" values="0 0 0 0 0 0 0 0 0 0 0 0 0 0 0 0 0 0 127 0" result="hardAlpha"/>
<feOffset dx="4" dy="4"/>
<feGaussianBlur stdDeviation="2"/>
<feComposite in2="hardAlpha" operator="out"/>
<feColorMatrix type="matrix" values="0 0 0 0 0 0 0 0 0 0 0 0 0 0 0 0 0 0 1 0"/>
<feBlend mode="normal" in2="BackgroundImageFix" result="effect1_dropShadow_1_39"/>
<feBlend mode="normal" in="SourceGraphic" in2="effect1_dropShadow_1_39" result="shape"/>
</filter>
</defs>
</svg>
