<svg width="20" height="21" viewBox="0 0 20 21" fill="none" xmlns="http://www.w3.org/2000/svg">
<path d="M19.5272 8.47414H18.7463V8.43391H10.0208V12.3119H15.4999C14.7006 14.5693 12.5527 16.1898 10.0208 16.1898C6.80843 16.1898 4.20389 13.5853 4.20389 10.3729C4.20389 7.16048 6.80843 4.55594 10.0208 4.55594C11.5037 4.55594 12.8527 5.11534 13.8799 6.02908L16.6221 3.28688C14.8906 1.67316 12.5745 0.677979 10.0208 0.677979C4.66682 0.677979 0.325928 5.01888 0.325928 10.3729C0.325928 15.7269 4.66682 20.0678 10.0208 20.0678C15.3749 20.0678 19.7158 15.7269 19.7158 10.3729C19.7158 9.72285 19.6489 9.08832 19.5272 8.47414Z" fill="#FFC107"/>
<path d="M10.0208 20.0678C12.525 20.0678 14.8004 19.1094 16.5207 17.551L13.5202 15.0119C12.5141 15.777 11.2847 16.1908 10.0208 16.1898C7.49914 16.1898 5.35802 14.5819 4.5514 12.338L1.38989 14.7739C2.9944 17.9136 6.25286 20.0678 10.0208 20.0678Z" fill="#4CAF50"/>
<path d="M19.5271 8.47419H18.7462V8.43396H10.0208V12.3119H15.4998C15.1175 13.3863 14.4287 14.3252 13.5187 15.0124L13.5201 15.0115L16.5207 17.5506C16.3084 17.7435 19.7157 15.2204 19.7157 10.3729C19.7157 9.7229 19.6488 9.08837 19.5271 8.47419Z" fill="#1976D2"/>
<path d="M1.4436 5.86039L4.62887 8.19638C5.49074 6.06253 7.57806 4.55594 10.0207 4.55594C11.5035 4.55594 12.8526 5.11534 13.8798 6.02908L16.622 3.28688C14.8904 1.67316 12.5743 0.677979 10.0207 0.677979C6.29688 0.677979 3.0675 2.78032 1.4436 5.86039Z" fill="#FF3D00"/>
</svg>
