<svg width="38" height="38" viewBox="0 0 38 38" fill="none" xmlns="http://www.w3.org/2000/svg">
<g clip-path="url(#clip0_1_112)">
<path d="M19 35.625C14.5908 35.625 10.3621 33.8734 7.24435 30.7556C4.12656 27.6379 2.375 23.4092 2.375 19C2.375 14.5908 4.12656 10.3621 7.24435 7.24435C10.3621 4.12656 14.5908 2.375 19 2.375C23.4092 2.375 27.6379 4.12656 30.7556 7.24435C33.8734 10.3621 35.625 14.5908 35.625 19C35.625 23.4092 33.8734 27.6379 30.7556 30.7556C27.6379 33.8734 23.4092 35.625 19 35.625ZM19 38C24.0391 38 28.8718 35.9982 32.435 32.435C35.9982 28.8718 38 24.0391 38 19C38 13.9609 35.9982 9.12816 32.435 5.56497C28.8718 2.00178 24.0391 0 19 0C13.9609 0 9.12816 2.00178 5.56497 5.56497C2.00178 9.12816 0 13.9609 0 19C0 24.0391 2.00178 28.8718 5.56497 32.435C9.12816 35.9982 13.9609 38 19 38Z" fill="white"/>
<path d="M12.4806 13.7417C12.4774 13.8184 12.4898 13.895 12.5173 13.9667C12.5447 14.0384 12.5865 14.1037 12.6401 14.1587C12.6937 14.2136 12.758 14.257 12.829 14.2862C12.9 14.3154 12.9762 14.3297 13.053 14.3284H15.0124C15.3401 14.3284 15.6014 14.06 15.6441 13.7346C15.8579 12.1766 16.9266 11.0414 18.8314 11.0414C20.4606 11.0414 21.9521 11.856 21.9521 13.8154C21.9521 15.3235 21.0639 16.017 19.6602 17.0715C18.0619 18.2329 16.796 19.589 16.8862 21.7906L16.8934 22.306C16.8959 22.4618 16.9595 22.6104 17.0706 22.7197C17.1817 22.829 17.3313 22.8903 17.4871 22.8902H19.4132C19.5707 22.8902 19.7217 22.8277 19.8331 22.7163C19.9444 22.605 20.007 22.454 20.007 22.2965V22.0471C20.007 20.3419 20.6554 19.8455 22.4057 18.5179C23.8521 17.4183 25.3602 16.1975 25.3602 13.6349C25.3602 10.0463 22.3297 8.3125 19.0119 8.3125C16.0027 8.3125 12.7062 9.71375 12.4806 13.7417ZM16.1785 27.4289C16.1785 28.6947 17.1879 29.6305 18.5772 29.6305C20.0236 29.6305 21.0187 28.6947 21.0187 27.4289C21.0187 26.1179 20.0212 25.1964 18.5749 25.1964C17.1879 25.1964 16.1785 26.1179 16.1785 27.4289Z" fill="white"/>
</g>
<defs>
<clipPath id="clip0_1_112">
<rect width="38" height="38" fill="white"/>
</clipPath>
</defs>
</svg>
